# xmcd
#
# Track frame offsets:
#	150
#	13871
#	26985
#	40543
#	54607
#	69291
#	84195
#	97307
#	113906
#	128968
#
# Disc length: 1907
#
# Revision: 1
# Processed by: cddbd v1.5.1PL0 Copyright (c) Steve Scherf et al.
# Submitted via: CDex 1.51
# Normalized: r0:DSETVAR1
#
DISCID=8207710a
DTITLE=Various Artist - Jazz Reference
DYEAR=1900
DGENRE=Jazz
TTITLE0=Louis Armstrong - C'est si bon
TTITLE1=Stan Getz - Too Marvelous For Words
TTITLE2=Sarah Vaughan - Ain't Misbehavin'
TTITLE3=Dizzy Gillespie - A Night in Tunisia
TTITLE4=Lionel Hampton - Flying Home
TTITLE5=Miles Davis - Moon Dreams
TTITLE6=Fats Navarro - Rue Chaptal
TTITLE7=Oscar Peterson - Tenderly
TTITLE8=Duke Ellington - Stomp, Look and Listen
TTITLE9=Charlie Parker - April in Paris
EXTD=
EXTT0=
EXTT1=
EXTT2=
EXTT3=
EXTT4=
EXTT5=
EXTT6=
EXTT7=
EXTT8=
EXTT9=
PLAYORDER=
